#!OML:ASF X:\für Bonn\!DataBase\2005_08_12_Daniel\c3d\Daniel.ASF
:FULLY-SPECIFIED
:DEGREES
16
root 2.8052 17.662 17.3967 -4.56997 7.3047 -0.145605
lowerback 3.57334 -2.69011 0.829548
upperback 2.30137 -3.5616 -1.51462
thorax 0.214152 -1.76473 -1.89455
lowerneck -0.939723 1.44794 -0.661758
upperneck 8.15783 2.17967 -2.88944
head 2.7792 0.97414 -0.753271
rclavicle 3.93718e-014 1.82882e-014
rhumerus -46.6583 -13.7153 -86.5166
rradius 30.1512
rwrist -4.90736
rhand -19.7704 16.2579
rfingers 7.12502
rthumb 6.56145 -13.6204
lclavicle 3.93718e-014 1.82882e-014
lhumerus -33.9352 31.2611 73.6481
lradius 19.1501
lwrist -36.0793
lhand -9.56213 -6.5448
lfingers 7.12502
lthumb 16.4053 22.7815
rfemur 8.83373 21.984 22.0299
rtibia 13.4739
rfoot -25.3083 -26.5808
rtoes -11.1072
lfemur 1.92649 -16.2373 -20.382
ltibia 25.6756
lfoot -22.8699 13.3688
ltoes -11.7313
17
root 2.80197 17.6614 17.3999 -4.58613 7.44911 -0.146133
lowerback 3.61305 -2.71328 0.804448
upperback 2.31193 -3.59292 -1.51166
thorax 0.203338 -1.78062 -1.87465
lowerneck -1.01137 1.43925 -0.656258
upperneck 8.12768 2.17624 -2.99589
head 2.78415 0.969135 -0.788155
rclavicle 1.30701e-014 8.34896e-015
rhumerus -47.2567 -13.7174 -86.7392
rradius 31.8656
rwrist -6.56404
rhand -20.1116 16.4678
rfingers 7.12502
rthumb 6.2321 -13.4205
lclavicle 1.30701e-014 8.34896e-015
lhumerus -33.9315 31.1423 73.7063
lradius 19.212
lwrist -35.8028
lhand -9.51655 -6.61734
lfingers 7.12502
lthumb 16.4492 22.7053
rfemur 8.90911 21.982 22.0865
rtibia 13.4494
rfoot -25.385 -26.7211
rtoes -11.1152
lfemur 1.90877 -16.2047 -20.3391
ltibia 25.6882
lfoot -22.8373 13.1964
ltoes -11.7584
18
root 2.80041 17.6603 17.4035 -4.60212 7.58785 -0.134825
lowerback 3.6409 -2.73157 0.792113
upperback 2.33871 -3.61732 -1.52885
thorax 0.214018 -1.79259 -1.88387
lowerneck -1.14434 1.44267 -0.66556
upperneck 8.13101 2.18664 -3.03402
head 2.81058 0.971648 -0.797856
rclavicle -2.31087e-014 -5.56597e-015
rhumerus -47.8946 -13.7546 -87.0088
rradius 33.7909
rwrist -8.06452
rhand -20.6176 16.7719
rfingers 7.12502
rthumb 5.74359 -13.1303
lclavicle -2.31087e-014 -5.56597e-015
lhumerus -33.8848 31.059 73.7263
lradius 19.2602
lwrist -35.586
lhand -9.39189 -6.66222
lfingers 7.12502
lthumb 16.5692 22.6504
rfemur 8.9827 21.9134 22.1014
rtibia 13.4287
rfoot -25.4538 -26.7725
rtoes -11.0896
lfemur 1.90814 -16.1892 -20.326
ltibia 25.6992
lfoot -22.82 13.0475
ltoes -11.7711
19
root 2.79866 17.6599 17.4064 -4.61124 7.70303 -0.109529
lowerback 3.6938 -2.74757 0.747976
upperback 2.33368 -3.6398 -1.5294
thorax 0.18116 -1.80446 -1.85608
lowerneck -1.21058 1.43972 -0.657797
upperneck 8.12555 2.1937 -3.16898
head 2.82362 0.970656 -0.842191
rclavicle -3.08862e-014 9.93923e-015
rhumerus -48.6922 -13.6577 -87.2981
rradius 36.0373
rwrist -9.48082
rhand -21.2593 17.0465
rfingers 7.12502
rthumb 5.12403 -12.8715
lclavicle -3.08862e-014 9.93923e-015
lhumerus -33.8796 30.8722 73.8105
lradius 19.339
lwrist -35.2345
lhand -9.19789 -6.61037
lfingers 7.12502
lthumb 16.7559 22.6866
rfemur 9.02413 21.7858 22.0811
rtibia 13.4178
rfoot -25.4179 -26.7881
rtoes -11.2892
lfemur 1.90866 -16.2374 -20.3479
ltibia 25.7027
lfoot -22.8052 12.9876
ltoes -11.7828
20
root 2.79651 17.6594 17.4082 -4.61366 7.83342 -0.111514
lowerback 3.70707 -2.76564 0.738018
upperback 2.36331 -3.66383 -1.53876
thorax 0.203283 -1.81617 -1.85946
lowerneck -1.39149 1.44041 -0.671095
upperneck 8.16978 2.20437 -3.22551
head 2.8732 0.971464 -0.857047
rclavicle 1.29334e-014 -8.34896e-015
rhumerus -49.4755 -13.5783 -87.629
rradius 38.4441
rwrist -10.7783
rhand -21.9641 17.5335
rfingers 7.12502
rthumb 4.44344 -12.3999
lclavicle 1.29334e-014 -8.34896e-015
lhumerus -33.8441 30.8574 73.8268
lradius 19.4108
lwrist -35.0568
lhand -8.96914 -6.54497
lfingers 7.12502
lthumb 16.9761 22.7332
rfemur 9.07395 21.7616 22.1175
rtibia 13.4033
rfoot -25.4994 -26.8749
rtoes -11.2546
lfemur 1.87923 -16.2342 -20.3047
ltibia 25.7106
lfoot -22.7916 12.8247
ltoes -11.7051
21
root 2.79451 17.6593 17.411 -4.61732 7.93754 -0.0986473
lowerback 3.73946 -2.76836 0.723966
upperback 2.35876 -3.66787 -1.56271
thorax 0.17973 -1.81836 -1.87413
lowerneck -1.42907 1.42499 -0.651899
upperneck 8.15207 2.1893 -3.30621
head 2.87568 0.961906 -0.886696
rclavicle 3.03519e-014 1.98785e-015
rhumerus -50.3071 -13.582 -87.9202
rradius 40.8926
rwrist -11.8395
rhand -22.7318 18.136
rfingers 7.12502
rthumb 3.70209 -11.8116
lclavicle 3.03519e-014 1.98785e-015
lhumerus -33.8616 30.7127 73.8337
lradius 19.4915
lwrist -34.8076
lhand -8.67994 -6.4643
lfingers 7.12502
lthumb 17.2545 22.7897
rfemur 9.10448 21.6525 22.1057
rtibia 13.3904
rfoot -25.4947 -26.8835
rtoes -11.3012
lfemur 1.86543 -16.2164 -20.2926
ltibia 25.7141
lfoot -22.7676 12.7093
ltoes -11.7232
22
root 2.79316 17.659 17.4134 -4.6194 8.06507 -0.100154
lowerback 3.76081 -2.78317 0.729026
upperback 2.3749 -3.68726 -1.5836
thorax 0.181986 -1.82776 -1.89697
lowerneck -1.55511 1.42062 -0.658526
upperneck 8.18807 2.19138 -3.35775
head 2.91226 0.95935 -0.901688
rclavicle -2.08103e-014 -2.54444e-014
rhumerus -51.0283 -13.6286 -88.1727
rradius 43.26
rwrist -12.5798
rhand -23.5115 18.8846
rfingers 7.12502
rthumb 2.94915 -11.0748
lclavicle -2.08103e-014 -2.54444e-014
lhumerus -33.8095 30.5393 73.9026
lradius 19.5432
lwrist -34.4996
lhand -8.45109 -6.25613
lfingers 7.12502
lthumb 17.4748 22.9784
rfemur 9.1491 21.5928 22.1248
rtibia 13.3699
rfoot -25.551 -26.9365
rtoes -11.2758
lfemur 1.83293 -16.1963 -20.2576
ltibia 25.724
lfoot -22.7339 12.5676
ltoes -11.7441
23
root 2.79138 17.6587 17.4154 -4.62516 8.16725 -0.0860907
lowerback 3.79978 -2.7875 0.699251
upperback 2.37089 -3.69388 -1.59314
thorax 0.157128 -1.83146 -1.8877
lowerneck -1.61038 1.41847 -0.651771
upperneck 8.20139 2.19969 -3.48496
head 2.92966 0.958815 -0.943653
rclavicle 1.27843e-014 -1.27222e-014
rhumerus -51.6151 -13.6403 -88.4
rradius 45.3979
rwrist -13.218
rhand -24.2721 19.7836
rfingers 7.12502
rthumb 2.21461 -10.1846
lclavicle 1.27843e-014 -1.27222e-014
lhumerus -33.8362 30.4375 73.9228
lradius 19.6245
lwrist -34.2644
lhand -8.15232 -6.09549
lfingers 7.12502
lthumb 17.7623 23.1133
rfemur 9.1849 21.4722 22.1059
rtibia 13.3537
rfoot -25.5592 -26.9145
rtoes -11.2753
lfemur 1.82524 -16.2302 -20.2631
ltibia 25.732
lfoot -22.7213 12.5041
ltoes -11.7553
24
root 2.79033 17.658 17.4165 -4.65392 8.29674 -0.0648507
lowerback 3.85592 -2.80313 0.663406
upperback 2.39104 -3.71549 -1.59861
thorax 0.147599 -1.84247 -1.87016
lowerneck -1.74037 1.40981 -0.745143
upperneck 8.23586 2.19853 -3.51503
head 2.96488 0.952575 -0.936774
rclavicle -1.04362e-014 -1.39149e-014
rhumerus -52.0802 -13.6256 -88.5914
rradius 47.4759
rwrist -13.6591
rhand -24.9665 20.7302
rfingers 7.12502
rthumb 1.54395 -9.24397
lclavicle -1.04362e-014 -1.39149e-014
lhumerus -33.8148 30.459 73.9384
lradius 19.6437
lwrist -34.1721
lhand -7.88352 -5.89714
lfingers 7.12502
lthumb 18.0209 23.288
rfemur 9.26111 21.4146 22.1108
rtibia 13.3342
rfoot -25.6187 -26.9682
rtoes -11.2489
lfemur 1.82363 -16.2147 -20.2649
ltibia 25.7416
lfoot -22.6866 12.3689
ltoes -11.7757
25
root 2.78863 17.658 17.4172 -4.65257 8.41313 -0.0653838
lowerback 3.89519 -2.80724 0.647946
upperback 2.39381 -3.72136 -1.60476
thorax 0.128902 -1.84558 -1.86561
lowerneck -1.83159 1.39885 -0.78524
upperneck 8.26573 2.19414 -3.58305
head 2.99275 0.945524 -0.951756
rclavicle 2.28851e-014 -2.74323e-014
rhumerus -52.54 -13.6369 -88.7939
rradius 49.6535
rwrist -13.9018
rhand -25.5229 21.3986
rfingers 7.12502
rthumb 1.00652 -8.57876
lclavicle 2.28851e-014 -2.74323e-014
lhumerus -33.814 30.3185 73.9812
lradius 19.73
lwrist -33.972
lhand -7.49418 -5.74035
lfingers 7.12502
lthumb 18.3955 23.4098
rfemur 9.27064 21.2515 22.0946
rtibia 13.3268
rfoot -25.5798 -26.943
rtoes -11.2482
lfemur 1.78675 -16.1804 -20.2263
ltibia 25.7477
lfoot -22.6488 12.2261
ltoes -11.7959
26
root 2.7876 17.6577 17.4185 -4.65755 8.51258 -0.0527554
lowerback 3.92583 -2.80373 0.636042
upperback 2.38587 -3.71717 -1.63403
thorax 0.102672 -1.84362 -1.88721
lowerneck -1.85295 1.39768 -0.81095
upperneck 8.30323 2.19776 -3.60856
head 3.00971 0.94488 -0.955512
rclavicle 2.15557e-014 -8.34896e-015
rhumerus -53.0426 -13.5407 -89.037
rradius 51.9864
rwrist -14.1943
rhand -25.8885 21.9514
rfingers 7.12502
rthumb 0.653459 -8.02735
lclavicle 2.15557e-014 -8.34896e-015
lhumerus -33.8276 30.1955 73.9899
lradius 19.7617
lwrist -33.7744
lhand -7.16282 -5.49413
lfingers 7.12502
lthumb 18.7142 23.6257
rfemur 9.30764 21.1959 22.0928
rtibia 13.3176
rfoot -25.6238 -26.9729
rtoes -11.2307
lfemur 1.77407 -16.2096 -20.2268
ltibia 25.7552
lfoot -22.6394 12.1452
ltoes -11.7623
